<svg xmlns="http://www.w3.org/2000/svg" viewBox="0 0 1021.21 1051.39"><path d="M14.74 1046.06c14.74-56.49 35.81-111.2 62.97-162.89a772.15 772.15 0 0 1 45.04-75.05c15.03-22.09 30.98-43.89 50.8-61.97 18.13-16.53 40.55-30.06 65.59-31.52 28.5-1.66 55.29 10.64 82.96 15.31 25.18 4.25 50.22 1.34 71.87-12.9 19.51-12.84 34.28-31.87 45.14-52.32 24.61-46.35 26.76-99.64 44.83-148.27 8.87-23.87 22.73-48.02 44.44-62.34 10.68-7.04 22.71-11.3 35.61-10.83 14.22.52 27.81 6.1 41.15 10.52s25.99 7.62 39.61 7.39c11.72-.2 23.37-2.7 34.21-7.13 22.79-9.29 41.7-25.79 56.56-45.18 35.28-46.01 40.32-104.29 48.95-159.65 7.62-48.86 19.93-114.85 71.96-135.84 13.83-5.58 28.67-8.04 42.95-12.13 12.48-3.58 24.64-8.38 36.25-14.18 22.85-11.4 43.76-27.13 61.1-45.87 8.63-9.33 16.41-19.47 23.27-30.17 5.23-8.15-7.75-15.68-12.95-7.57-13.94 21.74-32.16 40.74-53.38 55.47-22.26 15.46-46.51 25.13-72.71 31.6-14.23 3.51-28.65 7.15-41.5 14.47-10.88 6.2-20.42 14.72-28.23 24.48-16.55 20.66-26.21 45.71-32.57 71.17-7.35 29.45-10.61 59.69-15.41 89.61-4.48 27.9-9.96 56.67-22.62 82.17-20.06 40.39-61.56 81.67-110.68 72.59-27.96-5.17-53.36-21.43-82.71-15.23-25.86 5.46-46.45 25.22-60.33 46.8-29.24 45.48-30.85 100.95-47.97 150.91-14.12 41.19-43.82 88.03-92.29 89.48-28.4.85-55.04-11.64-82.76-15.84-26.69-4.04-52.25.84-75.36 14.93-22.2 13.54-40.33 32.87-56.17 53.26-17.56 22.59-33.4 46.63-48 71.23-29.81 50.22-53.96 103.87-71.85 159.46A776.546 776.546 0 0 0 .3 1042.07c-2.44 9.35 12.03 13.34 14.46 3.99Z" style="stroke-width:0"/></svg>