<?xml version="1.0" encoding="UTF-8"?><svg id="Layer_2" xmlns="http://www.w3.org/2000/svg" viewBox="0 0 914.1 841.4"><defs><style>.cls-1{stroke-width:0px;}</style></defs><g id="Layer_1-2"><path class="cls-1" d="M14.87,836.2c17.79-54.67,39.4-108.03,64.78-159.61,24.82-50.45,52.65-100.19,85.4-145.96,15.59-21.79,32.91-42.46,52.8-60.48,15.22-13.79,42.97-40.06,62.92-20.1,9.48,9.49,15.94,21.91,22.41,33.52s13.02,23.3,21.58,33.59c15.86,19.07,39.53,32.37,64.78,25.87,23.99-6.18,42.82-26.34,57.85-44.96s26.4-37.33,36.43-57.9c20.59-42.26,33.46-87.68,46.66-132.63,13.26-45.14,26.83-90.73,49.21-132.35,9.79-18.21,23.67-39.7,46.13-42.44,17.97-2.19,34.43,8.55,48.51,18.36,16.18,11.28,31.63,23.87,50.16,31.17,21.66,8.53,44.71,5.11,64.13-7.38,21.93-14.09,38.07-35.41,53.75-55.8,17.66-22.96,34.16-46.81,49.4-71.43,7.4-11.96,14.5-24.11,21.32-36.42,4.68-8.45-8.27-16.03-12.95-7.57-14.03,25.34-29.31,49.98-45.82,73.78-15.68,22.61-32.04,45.57-51.08,65.51-15.52,16.25-35.9,31.93-59.75,28.94-18.62-2.33-34.8-14.53-49.58-25.16-15.33-11.04-31.28-23.43-50.09-27.7-22.03-5-42.97,3.63-57.83,20.14-15.79,17.55-25.99,40.18-35.14,61.7-9.35,22-17.16,44.6-24.26,67.41-14.01,44.96-25.48,90.8-42.76,134.68-8.33,21.16-18.22,41.78-30.38,61.01-12.22,19.33-27.06,38.68-45.26,52.76-9.32,7.21-20.47,13.1-32.51,13.07-11.53-.04-22.21-5.71-30.67-13.23-19.84-17.64-28.5-43.58-43.59-64.8-7.53-10.59-16.78-21.3-30.29-23.56-13.3-2.23-26.33,3.04-37.33,10.18-22.4,14.52-41.83,34.64-58.86,55.01-35.59,42.58-64.11,91.46-90.15,140.3s-50.88,104.2-70.67,158.65c-4.8,13.2-9.36,26.49-13.71,39.85-2.99,9.2,11.48,13.14,14.46,3.99h0Z"/></g></svg>